PathFileType	4	(x/y/z)	S02_PSF_T01
DataRate	CameraRate	NumFrames	NumMarkers	Units	OrigDataRate	OrigDataStartFrame	OrigNumFrames
240	240	8	51	mm	240	349	398
Frame#	Time	Sternum			R.Acromium			L.Acromium			Top.Head			R.ASIS			L.ASIS			R.PSIS			L.PSIS			R.Great.Tro			L.Great.Tro			R.Iliac.Crest			L.Iliac.Crest			V.Sacral			R.Thigh.Upper.Post			R.Thigh.Lower.Ant			R.Thigh.Lower.Post			R.Thigh.Upper.Ant			R.Knee.Lat			R.Knee.Med			R.Shank.Upper.Post			R.Shank.Lower.Ant			R.Shank.Lower.Post			R.Shank.Upper.Ant			R.Ankle.Lat			R.Ankle.Med			R.Heel.Upper			R.Heel.Med			R.Heel.Lat			R.Toe.Lat			R.Toe.Med			R.Toe.Tip			L.Thigh.Upper.Post			L.Thigh.Lower.Ant			L.Thigh.Lower.Post			L.Thigh.Upper.Ant			L.Knee.Lat			L.Knee.Med			L.Shank.Upper.Post			L.Shank.Lower.Ant			L.Shank.Lower.Post			L.Shank.Upper.Ant			L.Ankle.Lat			L.Ankle.Med			L.Heel.Upper			L.Heel.Med			L.Heel.Lat			L.Toe.Lat			L.Toe.Med			L.Toe.Tip			Cervical.Spine			Back			
		X1	Y1	Z1	X2	Y2	Z2	X3	Y3	Z3	X4	Y4	Z4	X5	Y5	Z5	X6	Y6	Z6	X7	Y7	Z7	X8	Y8	Z8	X9	Y9	Z9	X10	Y10	Z10	X11	Y11	Z11	X12	Y12	Z12	X13	Y13	Z13	X14	Y14	Z14	X15	Y15	Z15	X16	Y16	Z16	X17	Y17	Z17	X18	Y18	Z18	X19	Y19	Z19	X20	Y20	Z20	X21	Y21	Z21	X22	Y22	Z22	X23	Y23	Z23	X24	Y24	Z24	X25	Y25	Z25	X26	Y26	Z26	X27	Y27	Z27	X28	Y28	Z28	X29	Y29	Z29	X30	Y30	Z30	X31	Y31	Z31	X32	Y32	Z32	X33	Y33	Z33	X34	Y34	Z34	X35	Y35	Z35	X36	Y36	Z36	X37	Y37	Z37	X38	Y38	Z38	X39	Y39	Z39	X40	Y40	Z40	X41	Y41	Z41	X42	Y42	Z42	X43	Y43	Z43	X44	Y44	Z44	X45	Y45	Z45	X46	Y46	Z46	X47	Y47	Z47	X48	Y48	Z48	X49	Y49	Z49	X50	Y50	Z50	X51	Y51	Z51	

349	1.45	433.66	1096.3	312.22	323.46	1337.6	445.19	347.42	1333.8	153.02	352.33	1621.2	275.22	406.84	942.54	401.76	404.9	921.85	194.97	196.81	960.66	362.02	186.15	963.97	288.92	368.98	810.92	504.68	277.59	819.4	115.14	305.92	977.18	468.86	279.51	967.42	138.2	167.49	913.27	321.75	438.82	630.03	499.01	515.63	575.29	459.96	454.87	542.08	482.47	494.37	661.69	473.22	495.95	478.19	466.84	495.2	459.93	321.47	487.13	261.36	450.37	586.57	213.01	451.27	521.28	196.35	445.91	557.83	276.2	463.32	575.15	112.43	441.6	592.63	133.97	364.07	534.24	78.075	375.48	562.65	54.88	350.13	541.31	46.114	409.82	684.59	87.096	482.91	734.89	102.62	387.3	758.45	140.09	450.83	217.56	614.06	154.89	280.63	524.05	164.11	203.49	527.84	181.6	287.91	615.89	138.59	249.37	446.84	178	244.55	452.54	316.91	132.97	294.06	187.51	185.19	196.72	207.63	117.75	223.95	206.83	194.17	270.62	188.64	119.89	106.36	225.91	131.21	102.34	306.54	57.456	73.3	258.85	64.919	46.564	292.08	62.333	45.883	230.41	228.23	34.91	201.61	249.5	43.778	311.82	310.58	56.591	265.26	260.86	1397.2	293.6	178.29	1149.6	294.8
350	1.4542	439.04	1095	312.32	328.78	1336.4	445.52	352.98	1332.8	153.46	357.9	1620.1	275.95	412.74	941.36	401.77	410.12	920.79	194.89	202.5	959.57	362.8	191.54	962.93	289.72	375.28	809.49	504.6	282.24	818.9	115.3	311.95	976.01	469.25	284.39	966.31	138.6	172.98	912.2	322.57	444.79	628.81	498.78	521	573.82	458.85	460.47	540.77	482.34	499.99	660.32	472.03	501.52	477.04	466.47	499.47	458.33	320.65	496.57	260.2	450.25	597.08	213.76	450.95	532.03	195.84	445.72	567.11	276.47	463.08	587.78	112.75	441.33	604.32	134.59	363.77	547.22	77.234	375.62	575.93	54.635	350.11	555.18	45.516	409.91	698.12	89.68	481.99	747.47	106.2	386.1	770.64	144.29	449.38	221.37	613.95	154.93	283.83	523.54	164.18	206.72	527.85	181.73	291.72	615.32	138.63	252.03	446.45	178.07	247.08	452.26	316.99	134.67	294.42	187.5	186.21	196.74	207.65	118.97	224.45	206.79	195.7	270.57	188.65	120.22	106.74	225.94	131.52	102.68	306.63	57.622	73.693	258.86	65.011	46.948	292.1	62.412	46.254	230.43	228.27	34.861	201.62	249.59	43.746	311.79	310.71	56.397	265.23	266.25	1396.1	293.98	183.66	1148.6	295.06
351	1.4583	444.44	1093.6	312.43	334.12	1335.2	445.87	358.53	1331.8	153.92	363.48	1619	276.69	418.64	940.14	401.8	415.35	919.73	194.82	208.2	958.45	363.58	196.96	961.88	290.53	381.57	808	504.51	286.94	818.37	115.46	317.97	974.81	469.65	289.3	965.18	139	178.49	911.12	323.4	450.78	627.6	498.55	526.42	572.4	457.79	466.13	539.48	482.2	505.64	658.99	470.9	507.16	475.92	466.11	503.84	456.79	319.86	505.74	259.1	450.1	607.2	214.43	450.54	542.38	195.36	445.47	576.12	276.68	462.78	599.88	113.06	440.96	615.45	135.17	363.36	559.6	76.464	375.7	588.55	54.43	350	568.41	44.988	409.92	711.07	92.105	480.91	759.39	109.56	384.68	782.26	148.22	447.73	225.25	613.8	155.01	287.13	523	164.25	210.05	527.81	181.87	295.6	614.72	138.68	254.83	446.02	178.15	249.78	451.94	317.07	136.47	294.79	187.49	187.28	196.76	207.67	120.25	224.95	206.76	197.32	270.49	188.67	120.58	107.15	225.97	131.85	103.04	306.71	57.8	74.125	258.86	65.105	47.377	292.11	62.497	46.657	230.44	228.32	34.811	201.63	249.68	43.714	311.76	310.84	56.198	265.19	271.63	1395.1	294.38	189.04	1147.5	295.34
352	1.4625	449.87	1092.2	312.56	339.47	1333.9	446.24	364.07	1330.7	154.38	369.07	1617.9	277.45	424.54	938.89	401.85	420.61	918.66	194.76	213.89	957.31	364.36	202.4	960.81	291.34	387.85	806.49	504.41	291.69	817.82	115.62	323.99	973.57	470.07	294.23	964.04	139.4	183.99	910.03	324.21	456.79	626.4	498.33	531.91	571.04	456.78	471.86	538.23	482.02	511.32	657.7	469.84	512.87	474.83	465.75	508.32	455.31	319.12	514.63	258.07	449.92	616.92	215.01	450.04	552.33	194.9	445.16	584.85	276.82	462.41	611.42	113.34	440.51	626.02	135.7	362.86	571.34	75.743	375.69	600.47	54.238	349.8	580.98	44.503	409.85	723.41	94.329	479.66	770.64	112.65	383.08	793.31	151.82	445.87	229.2	613.59	155.12	290.52	522.42	164.32	213.5	527.72	182.04	299.55	614.09	138.73	257.76	445.56	178.24	252.66	451.56	317.16	138.36	295.16	187.48	188.41	196.76	207.68	121.61	225.46	206.72	199.03	270.4	188.69	120.97	107.58	225.99	132.2	103.44	306.78	57.99	74.602	258.84	65.203	47.855	292.12	62.588	47.096	230.44	228.37	34.76	201.64	249.77	43.682	311.72	310.98	55.993	265.16	277.02	1394	294.81	194.43	1146.4	295.65
353	1.4667	455.33	1090.8	312.7	344.84	1332.6	446.64	369.61	1329.7	154.87	374.65	1616.7	278.22	430.43	937.6	401.93	425.89	917.58	194.73	219.59	956.17	365.13	207.85	959.74	292.14	394.11	804.95	504.3	296.48	817.22	115.79	330.01	972.3	470.51	299.18	962.89	139.8	189.49	908.93	325.01	462.83	625.24	498.1	537.49	569.76	455.82	477.66	537.01	481.81	517.03	656.47	468.86	518.67	473.79	465.38	512.93	453.9	318.41	523.24	257.08	449.71	626.24	215.46	449.44	561.86	194.44	444.8	593.3	276.89	461.95	622.38	113.56	439.95	636	136.13	362.25	582.42	75.049	375.61	611.67	54.031	349.5	592.86	44.037	409.7	735.12	96.314	478.25	781.23	115.44	381.28	803.77	155.05	443.82	233.23	613.34	155.27	294.02	521.81	164.38	217.05	527.57	182.24	303.57	613.44	138.79	260.81	445.06	178.34	255.73	451.12	317.25	140.35	295.54	187.47	189.59	196.76	207.68	123.03	225.98	206.69	200.82	270.3	188.71	121.4	108.04	226	132.58	103.86	306.84	58.194	75.128	258.8	65.307	48.389	292.11	62.686	47.577	230.43	228.42	34.707	201.65	249.86	43.652	311.68	311.12	55.782	265.13	282.41	1392.9	295.26	199.82	1145.3	295.98
354	1.4708	460.82	1089.4	312.85	350.23	1331.3	447.05	375.14	1328.6	155.36	380.24	1615.6	279.01	436.32	936.29	402.04	431.19	916.5	194.71	225.28	955.01	365.9	213.33	958.65	292.94	400.36	803.42	504.19	301.32	816.6	115.97	336.01	971	470.96	304.16	961.73	140.19	195	907.83	325.79	468.89	624.1	497.87	543.14	568.55	454.91	483.54	535.84	481.55	522.8	655.31	467.97	524.55	472.8	464.99	517.67	452.58	317.74	531.55	256.14	449.47	635.15	215.77	448.75	570.96	193.97	444.37	601.46	276.85	461.42	632.74	113.69	439.31	645.4	136.45	361.54	592.81	74.362	375.45	622.14	53.785	349.12	604.01	43.567	409.46	746.18	98.022	476.7	791.12	117.86	379.32	813.65	157.86	441.61	237.33	613.04	155.45	297.62	521.17	164.44	220.71	527.37	182.46	307.64	612.76	138.87	264	444.52	178.44	258.99	450.62	317.33	142.44	295.94	187.45	190.83	196.76	207.67	124.53	226.52	206.64	202.7	270.18	188.72	121.86	108.54	226	132.97	104.32	306.88	58.415	75.711	258.75	65.417	48.984	292.09	62.793	48.106	230.4	228.48	34.652	201.67	249.95	43.622	311.64	311.27	55.565	265.1	287.81	1391.8	295.73	205.23	1144.1	296.33
355	1.475	466.33	1088	313.01	355.64	1330	447.49	380.66	1327.5	155.87	385.84	1614.5	279.82	442.21	934.96	402.17	436.51	915.41	194.71	230.97	953.84	366.67	218.82	957.56	293.73	406.59	801.9	504.07	306.21	815.94	116.15	342.01	969.69	471.43	309.18	960.56	140.58	200.51	906.73	326.56	474.98	623	497.62	548.88	567.43	454.05	489.49	534.73	481.26	528.61	654.21	467.17	530.53	471.85	464.59	522.58	451.34	317.11	539.56	255.23	449.19	643.63	215.93	447.96	579.62	193.46	443.88	609.34	276.71	460.81	642.49	113.71	438.57	654.19	136.62	360.73	602.51	73.667	375.21	631.85	53.477	348.64	614.43	43.074	409.13	756.58	99.423	475.01	800.34	119.9	377.19	822.93	160.23	439.24	241.5	612.71	155.67	301.32	520.51	164.5	224.48	527.11	182.69	311.78	612.07	138.95	267.32	443.96	178.54	262.45	450.05	317.41	144.63	296.34	187.44	192.13	196.76	207.66	126.1	227.08	206.6	204.66	270.06	188.74	122.35	109.06	225.99	133.39	104.82	306.91	58.654	76.356	258.67	65.535	49.649	292.06	62.909	48.689	230.36	228.54	34.595	201.68	250.04	43.594	311.59	311.43	55.342	265.08	293.21	1390.7	296.24	210.65	1142.9	296.7
356	1.4792	471.88	1086.6	313.19	361.07	1328.7	447.96	386.18	1326.4	156.4	391.43	1613.3	280.64	448.11	933.62	402.32	441.86	914.32	194.73	236.67	952.68	367.42	224.34	956.47	294.51	412.81	800.4	503.95	311.15	815.25	116.34	348	968.37	471.92	314.22	959.39	140.97	206.04	905.64	327.32	481.1	621.94	497.37	554.71	566.4	453.23	495.52	533.66	480.93	534.48	653.18	466.44	536.6	470.94	464.15	527.65	450.2	316.51	547.27	254.36	448.87	651.7	215.92	447.08	587.83	192.91	443.32	616.94	276.45	460.1	651.61	113.61	437.74	662.38	136.63	359.83	611.5	72.948	374.87	640.81	53.09	348.07	624.08	42.542	408.72	766.3	100.49	473.19	808.87	121.52	374.92	831.62	162.11	436.72	245.74	612.33	155.93	305.13	519.83	164.55	228.36	526.81	182.95	315.98	611.36	139.04	270.76	443.37	178.64	266.12	449.41	317.47	146.91	296.76	187.42	193.48	196.77	207.62	127.74	227.66	206.56	206.7	269.93	188.74	122.88	109.63	225.97	133.84	105.36	306.92	58.915	77.07	258.57	65.664	50.39	292.01	63.037	49.332	230.31	228.6	34.535	201.69	250.13	43.569	311.54	311.59	55.113	265.05	298.62	1389.6	296.77	216.08	1141.8	297.09
